<?xml version="1.0" encoding="UTF-8" standalone="no"?>
<svg
   inkscape:export-ydpi="394.54666"
   inkscape:export-xdpi="394.54666"
   inkscape:export-filename="/Users/celineauzias/Dropbox/artwork/N2I/2020/n2i2020_affiche_hd.png"
   width="660.24841"
   height="574.2915"
   viewBox="0 0 174.69072 151.94796"
   version="1.1"
   id="svg1295"
   inkscape:version="1.1.1 (c3084ef, 2021-09-22)"
   sodipodi:docname="N2I2023-couleurs.svg"
   xmlns:inkscape="http://www.inkscape.org/namespaces/inkscape"
   xmlns:sodipodi="http://sodipodi.sourceforge.net/DTD/sodipodi-0.dtd"
   xmlns="http://www.w3.org/2000/svg"
   xmlns:svg="http://www.w3.org/2000/svg"
   xmlns:rdf="http://www.w3.org/1999/02/22-rdf-syntax-ns#"
   xmlns:cc="http://creativecommons.org/ns#"
   xmlns:dc="http://purl.org/dc/elements/1.1/">
  <defs
     id="defs1289">
    <style
       id="style466654">.cls-1{fill:none}.cls-5{opacity:.45}</style>
    <style
       id="style6517">.cls-1{fill:none}.cls-5{opacity:.45}</style>
  </defs>
  <sodipodi:namedview
     units="px"
     id="base"
     pagecolor="#ffffff"
     bordercolor="#666666"
     borderopacity="1.0"
     inkscape:pageopacity="0.0"
     inkscape:pageshadow="2"
     inkscape:zoom="0.97660736"
     inkscape:cx="383.47038"
     inkscape:cy="300.53019"
     inkscape:document-units="px"
     inkscape:current-layer="layer1"
     inkscape:document-rotation="0"
     showgrid="false"
     inkscape:window-width="1440"
     inkscape:window-height="855"
     inkscape:window-x="0"
     inkscape:window-y="23"
     inkscape:window-maximized="1"
     inkscape:snap-global="false"
     inkscape:pagecheckerboard="0"
     showguides="false"
     fit-margin-top="0"
     fit-margin-left="0"
     fit-margin-right="0"
     fit-margin-bottom="0">
    <inkscape:grid
       type="xygrid"
       id="grid3480"
       originx="-855.66258"
       originy="-276.31231" />
    <sodipodi:guide
       position="-1874.3493,-124.09869"
       orientation="1,0"
       id="guide18337" />
  </sodipodi:namedview>
  <metadata
     id="metadata1292">
    <rdf:RDF>
      <cc:Work
         rdf:about="">
        <dc:format>image/svg+xml</dc:format>
        <dc:type
           rdf:resource="http://purl.org/dc/dcmitype/StillImage" />
      </cc:Work>
    </rdf:RDF>
  </metadata>
  <g
     inkscape:label="Calque 1"
     inkscape:groupmode="layer"
     id="layer1"
     transform="translate(-855.66261,-276.31231)">
    <g
       transform="matrix(0.20778602,-0.17259766,0.17116773,0.20952187,530.07809,-599.92696)"
       id="g45577"
       style="fill:#fff59d;fill-opacity:1;stroke-width:0.601957">
      <path
         id="path45575"
         style="opacity:1;fill:#fff59d;fill-opacity:1;fill-rule:nonzero;stroke:none;stroke-width:7.28276;stroke-linecap:round;stroke-linejoin:round;stroke-miterlimit:4;stroke-dasharray:none;stroke-dashoffset:0;stroke-opacity:1"
         d="m -459.95703,-289.29297 a 18.969009,39.470606 80.416555 0 0 -0.67578,0.01 18.969009,39.470606 80.416555 0 0 -11.64063,1.09765 18.969009,39.470606 80.416555 0 0 -35.65429,21.35352 c -0.40515,0.9153 -0.55966,1.95603 -0.38672,3.02344 l 2.79297,17.24023 c 0.47068,2.90456 3.17028,4.86126 6.05078,4.38672 l 16.66601,-2.74609 4.67383,28.84375 c -21.83272,5.93887 -41.88717,15.90783 -59.23047,29.01171 l -9.69336,-11.86523 8.19922,-6.80859 c 1.4788,-1.22842 1.68691,-3.41705 0.46875,-4.90821 l -10.67969,-13.07422 c -0.76137,-0.93198 -1.89386,-1.36472 -2.99804,-1.25781 -0.66258,0.064 -1.31648,0.32252 -1.8711,0.78321 l -34.31836,28.50781 c -1.4788,1.22841 -1.68886,3.41704 -0.4707,4.9082 l 10.68164,13.07422 c 1.21824,1.49116 3.38839,1.70107 4.86719,0.47266 l 8.19922,-6.8086 10.01953,12.26758 c -29.46023,29.39759 -47.57031,69.25033 -47.57031,113.132812 0,90.370752 76.808,163.716798 171.4414,163.716798 63.95476,0 119.72461,-33.499753 149.18946,-83.113282 a 146.83793,146.83793 0 0 1 -71.04883,18.566406 146.83793,146.83793 0 0 1 -146.83789,-146.837894 146.83793,146.83793 0 0 1 20.88672,-75.15234 c 7.50819,-13.94661 17.9035,-26.59915 31.37695,-37.14453 a 146.83793,146.83793 0 0 1 0.65234,-0.51367 c 0.97103,-0.74951 1.95242,-1.49127 2.95508,-2.21875 l 0.28125,-0.0469 a 146.83793,146.83793 0 0 1 0.43359,-0.30273 l -0.0254,-0.1543 c 0.041,-0.03 0.0816,-0.0604 0.12305,-0.0898 -0.0458,0 -0.0911,0.007 -0.13672,0.01 l -4.6582,-28.75 15.96875,-2.63086 c 2.88049,-0.47461 4.82005,-3.19513 4.34961,-6.09961 l -2.68945,-16.59961 h 0.01 a 18.969009,39.470606 80.416555 0 0 -0.0293,-0.11718 l -0.084,-0.52149 c -0.12771,-0.78806 -0.42311,-1.50223 -0.83789,-2.12109 a 18.969009,39.470606 80.416555 0 0 -28.75,-10.52149 z m -9.00781,3.85547 c 0.12964,0.01 0.23132,0.0293 0.30273,0.0625 -10.4366,2.8443 -29.29926,13.83543 -32.5,19.73242 -2.59929,4.78902 -2.58789,11.68164 -2.58789,11.68164 0,0 -1.05819,-6.08765 -0.78711,-11.5664 0.45647,-9.22442 31.55225,-20.20473 35.57227,-19.91016 z m -51.54493,96.9043 c 6.59666,0.18369 11.71019,8.2352 11.44336,18.01758 -0.26642,9.78213 -5.81333,17.6115 -12.41015,17.42773 -6.59658,-0.18151 -11.71198,-8.30779 -11.44532,-18.08984 0.26627,-9.78222 5.81546,-17.53706 12.41211,-17.35547 z m -14.30664,50.79297 c 7.8284,0.21657 13.91983,9.80025 13.60352,21.4082 -0.31655,11.60811 -6.9238,20.835714 -14.75195,20.619139 -7.82775,-0.216493 -13.91225,-9.798219 -13.59571,-21.406249 0.31607,-11.60779 6.91639,-20.83775 14.74414,-20.62109 z m -49.13476,41.156246 c 3.9862,34.307288 17.72813,67.403142 39.16992,94.3417965 -4.51938,3.3164076 -7.90395,7.9630375 -8.9707,13.6406255 -1.47567,7.85548 1.91062,15.427391 7.46679,21.019531 5.5565,5.591978 13.36947,9.624069 22.41016,11.351562 9.04109,1.726278 17.77481,0.852012 24.97461,-2.302734 0.81575,-0.356773 1.64088,-0.726403 2.41992,-1.152344 8.0806,4.955133 16.5758,9.279868 25.31641,12.919922 -0.29454,-1.312972 -0.41745,-2.573834 -0.17383,-3.871094 1.74338,-9.279251 17.34059,-14.163575 34.79297,-10.830078 17.45157,3.333416 30.1926,13.630824 28.44922,22.910156 -0.37968,2.021335 -1.4458,3.822813 -3.01368,5.382813 23.16663,1.096074 46.52354,-2.251866 68.45899,-9.853516 -33.80956,28.991657 -80.84072,41.616675 -124.4668,33.396485 -38.50428,-7.355108 -73.7141,-30.69099 -95.7832,-63.345703 -22.0687,-32.6549566 -30.72835,-74.230528 -23.43555,-113.056641 0.6686,-3.545374 1.46637,-7.063236 2.38477,-10.550781 z m 66.33398,95.240234 c 2.32363,-0.048596 4.74648,0.1488161 7.20899,0.61914062 13.13283,2.50850548 22.41993,11.81920838 20.72851,20.82421838 -1.69189,9.005253 -13.71091,14.250855 -26.84375,11.742188 -13.13307,-2.508587 -22.42033,-11.823034 -20.72851,-20.828125 1.37454,-7.3165557 9.56604,-12.1474079 19.63476,-12.357422 z"
         transform="matrix(1.1046818,0.91000282,-0.90246365,1.0955297,-714.36044,4125.6185)" />
    </g>
    <path
       inkscape:connector-curvature="0"
       style="font-style:normal;font-variant:normal;font-weight:normal;font-stretch:normal;font-size:medium;line-height:100%;font-family:DS-Digital;-inkscape-font-specification:DS-Digital;text-align:start;writing-mode:lr-tb;text-anchor:start;fill:#fff59d;fill-opacity:1;stroke:none;stroke-width:0.557165;stroke-miterlimit:4;stroke-dasharray:none;stroke-opacity:1"
       d="m 960.21289,276.7057 a 2.4511905,2.4716678 0 0 0 -2.45104,2.47212 2.4511905,2.4716678 0 0 0 2.45104,2.47155 2.4511905,2.4716678 0 0 0 2.45167,-2.47155 2.4511905,2.4716678 0 0 0 -2.45167,-2.47212 z m 12.12413,1.48168 a 2.4511905,2.4716678 0 0 0 -2.45106,2.47152 2.4511905,2.4716678 0 0 0 2.45106,2.47156 2.4511905,2.4716678 0 0 0 2.45105,-2.47156 2.4511905,2.4716678 0 0 0 -2.45105,-2.47152 z m 11.70403,2.99935 a 2.4511905,2.4716678 0 0 0 -2.45108,2.47156 2.4511905,2.4716678 0 0 0 2.45108,2.47153 2.4511905,2.4716678 0 0 0 2.45105,-2.47153 2.4511905,2.4716678 0 0 0 -2.45105,-2.47156 z m 13.02715,0.9484 c -0.49841,0.0225 -0.98278,0.26201 -1.30743,0.69728 l -7.72368,10.35604 c -0.57716,0.77383 -0.42412,1.86518 0.3433,2.44715 l 1.66466,1.2629 c 0.76742,0.58197 1.84973,0.42762 2.42688,-0.3462 l 7.72427,-10.35605 c 0.5772,-0.77382 0.4241,-1.8658 -0.3433,-2.44777 l -1.66525,-1.26228 c -0.33575,-0.25461 -0.73179,-0.36858 -1.11945,-0.35107 z m 6.6411,12.50027 c -1.3536,10e-5 -2.4509,1.10662 -2.451,2.47156 1e-4,1.36494 1.0974,2.47143 2.451,2.47152 1.3537,-5e-5 2.451,-1.10654 2.4511,-2.47152 -10e-5,-1.36497 -1.0974,-2.47149 -2.4511,-2.47156 z m 8.0634,8.72079 a 2.4511905,2.4716678 0 0 0 -2.451,2.47153 2.4511905,2.4716678 0 0 0 2.451,2.47152 2.4511905,2.4716678 0 0 0 2.4517,-2.47152 2.4511905,2.4716678 0 0 0 -2.4517,-2.47153 z m 6.377,11.48912 a 2.4511905,2.4716678 0 0 0 -2.4511,2.47153 2.4511905,2.4716678 0 0 0 2.4511,2.47152 2.4511905,2.4716678 0 0 0 2.4511,-2.47152 2.4511905,2.4716678 0 0 0 -2.4511,-2.47153 z m 10.1137,10.73212 c -0.1153,-0.003 -0.2326,0.008 -0.3506,0.0306 l -12.6282,2.39901 c -0.9436,0.17928 -1.5602,1.08973 -1.3824,2.04124 l 0.3856,2.06438 c 0.1778,0.95152 1.0808,1.57318 2.0244,1.39393 l 12.6282,-2.399 c 0.9436,-0.17925 1.5602,-1.08973 1.3824,-2.04122 l -0.3857,-2.06441 c -0.1555,-0.83255 -0.8663,-1.41247 -1.6737,-1.42439 z m -4.89,13.4505 a 2.4511905,2.4716678 0 0 0 -2.4511,2.47153 2.4511905,2.4716678 0 0 0 2.4511,2.47153 2.4511905,2.4716678 0 0 0 2.4516,-2.47153 2.4511905,2.4716678 0 0 0 -2.4516,-2.47153 z m -0.949,11.9761 a 2.4511905,2.4716678 0 0 0 -2.4511,2.47153 2.4511905,2.4716678 0 0 0 2.4511,2.47155 2.4511905,2.4716678 0 0 0 2.4517,-2.47155 2.4511905,2.4716678 0 0 0 -2.4517,-2.47153 z m -3.8739,12.01392 a 2.4511905,2.4716678 0 0 0 -2.4511,2.47153 2.4511905,2.4716678 0 0 0 2.4511,2.47153 2.4511905,2.4716678 0 0 0 2.451,-2.47153 2.4511905,2.4716678 0 0 0 -2.451,-2.47153 z"
       id="path45581" />
    <g
       id="g1458">
      <circle
         style="fill:#141c22;fill-opacity:1;stroke:none;stroke-width:0.181688;stroke-linecap:round;stroke-linejoin:round;stroke-miterlimit:4;stroke-dasharray:none;stroke-opacity:0.45283"
         id="circle45589"
         cx="105.18404"
         cy="-82.882866"
         r="38.850868"
         transform="matrix(1.456254,0,0,1.456254,798.35293,467.81137)" />
      <g
         id="g45617"
         style="fill:#fefaec;fill-opacity:1"
         transform="matrix(0.9212029,0,0,0.9212029,839.15848,224.03278)">
        <g
           aria-label="LA NUIT"
           id="text45599"
           style="font-size:20.0517px;line-height:0.95;font-family:Aldo;-inkscape-font-specification:'Aldo, Normal';text-align:center;letter-spacing:4.23333px;text-anchor:middle;stroke-width:0.417744">
          <path
             d="m 90.131818,117.38085 v 1.42367 h -3.669461 q -0.5815,0 -1.002585,-0.20052 -0.421086,-0.22057 -0.70181,-0.54139 -0.280724,-0.34088 -0.421086,-0.74192 -0.140361,-0.40103 -0.140361,-0.78201 v -0.52135 -11.75029 h 1.684342 v 11.75029 0.20052 q 0,0.48124 0.300776,0.82212 0.320827,0.34088 0.842171,0.34088 h 1.203102 z"
             id="path4718" />
          <path
             d="m 103.15844,118.80452 h -1.70439 v -6.71732 q -0.0401,0.02 -0.44114,0.16041 -0.38098,0.14037 -0.84217,0.30078 l -1.203101,0.40103 q -0.24062,0.0602 -0.461189,0.20052 -0.180465,0.12031 -0.340879,0.32083 -0.140362,0.18046 -0.140362,0.48124 v 0.02 4.83246 h -1.684343 v -12.27164 q 0,-0.22057 0.08021,-0.6216 0.08021,-0.42109 0.421086,-0.82212 0.340879,-0.40104 1.022637,-0.68176 0.681758,-0.30078 1.88486,-0.30078 1.203101,0 1.884861,0.30078 0.68175,0.28072 1.02263,0.68176 0.34088,0.40103 0.42109,0.82212 0.0802,0.40103 0.0802,0.6216 z m -5.133231,-7.21861 q 0.180466,-0.0602 0.601551,-0.20052 0.421086,-0.16041 0.842172,-0.30078 0.441137,-0.16041 0.782018,-0.28072 0.36093,-0.12031 0.40103,-0.14036 0.52135,-0.18047 0.66171,-0.50129 0.14036,-0.32083 0.14036,-0.5815 v -2.74709 q 0,-0.18046 -0.0601,-0.38098 -0.0602,-0.22057 -0.26068,-0.40103 -0.18046,-0.18047 -0.52134,-0.30078 -0.34088,-0.14036 -0.92238,-0.14036 -0.541395,0 -0.882274,0.14036 -0.320828,0.12031 -0.501293,0.32083 -0.180465,0.20052 -0.24062,0.42109 -0.0401,0.20051 -0.0401,0.38098 v 4.71215 z"
             id="path4720" />
          <path
             d="m 124.3924,118.80452 h -1.70439 v -11.7503 -0.22057 q 0,-0.18046 -0.0602,-0.38098 -0.0601,-0.22057 -0.24062,-0.40103 -0.18047,-0.18047 -0.5414,-0.30078 -0.34087,-0.14036 -0.92237,-0.14036 -0.5414,0 -0.88228,0.14036 -0.32083,0.12031 -0.50129,0.32083 -0.18047,0.20052 -0.24062,0.42109 -0.0401,0.20051 -0.0401,0.38098 v 0.18046 11.7503 h -1.68434 v -11.7503 -0.52134 q 0,-0.22057 0.0802,-0.6216 0.0802,-0.42109 0.42108,-0.82212 0.34088,-0.40104 1.02264,-0.68176 0.68176,-0.30078 1.88486,-0.30078 1.2031,0 1.88486,0.30078 0.68176,0.28072 1.02264,0.68176 0.34088,0.40103 0.42108,0.82212 0.0802,0.40103 0.0802,0.6216 v 0.24062 z"
             id="path4722" />
          <path
             d="m 137.4184,116.33816 h -0.02 v 0.20052 q 0,0.24062 -0.0802,0.64165 -0.0802,0.40104 -0.42109,0.80207 -0.34087,0.40103 -1.02263,0.70181 -0.68176,0.28072 -1.88486,0.28072 -1.2031,0 -1.88486,-0.28072 -0.68176,-0.30078 -1.02264,-0.70181 -0.34088,-0.40103 -0.42108,-0.80207 -0.0802,-0.42108 -0.0802,-0.64165 v -0.5013 -11.77034 h 1.70439 v 11.77034 0.18047 q 0,0.18047 0.0401,0.40103 0.0602,0.20052 0.24062,0.40104 0.18046,0.18046 0.50129,0.32083 0.34088,0.12031 0.88227,0.12031 0.5815,0 0.92238,-0.12031 0.34088,-0.14037 0.52135,-0.32083 0.20051,-0.18047 0.26067,-0.38098 0.0601,-0.22057 0.0601,-0.38099 v -0.22057 -11.77034 h 1.7044 z"
             id="path4724" />
          <path
             d="m 143.62588,118.80452 v -14.53748 h 1.68434 v 14.53748 z"
             id="path4726" />
          <path
             d="m 157.91796,105.69071 h -2.56662 v 13.11381 H 153.667 v -13.11381 h -2.56662 v -1.42367 h 1.42367 5.39391 z"
             id="path4728" />
        </g>
        <g
           aria-label=" DE L'INFO"
           id="text45605"
           style="font-size:19.8178px;line-height:0.95;font-family:Aldo;-inkscape-font-specification:'Aldo, Normal';text-align:center;letter-spacing:3.64773px;text-anchor:middle;stroke-width:0.379428">
          <path
             d="m 82.711295,136.91979 v 0.51526 q 0,0.37654 -0.138725,0.77289 -0.138724,0.39636 -0.416174,0.73326 -0.277449,0.31709 -0.693623,0.53508 -0.416173,0.19818 -0.99089,0.19818 h -3.50775 -0.03964 -0.951254 v -14.36791 h 1.684513 2.814127 q 0.574717,0 0.99089,0.218 0.416174,0.19818 0.693623,0.53508 0.27745,0.31709 0.416174,0.71344 0.138725,0.39636 0.138725,0.7729 v 0.51526 z M 81.0466,128.06123 v -0.17836 q 0,-0.49545 -0.317085,-0.83235 -0.297267,-0.35672 -0.81253,-0.35672 h -1.189068 -1.070161 v 11.59341 h 1.070161 1.189068 q 0.515263,0 0.81253,-0.3369 0.317085,-0.35672 0.317085,-0.83235 v -0.19817 z"
             id="path4682" />
          <path
             d="m 94.414961,139.67446 h -3.884289 q -0.574716,0 -0.99089,-0.19818 -0.416174,-0.21799 -0.693623,-0.53508 -0.277449,-0.3369 -0.416174,-0.73326 -0.138724,-0.39635 -0.138724,-0.77289 v -0.51526 -8.85856 -0.51526 q 0,-0.37654 0.138724,-0.7729 0.138725,-0.39635 0.416174,-0.71344 0.277449,-0.3369 0.693623,-0.53508 0.416174,-0.218 0.99089,-0.218 h 3.884289 v 1.38725 h -2.140322 -1.189068 q -0.515263,0 -0.832348,0.35672 -0.297267,0.3369 -0.297267,0.83235 v 0.17836 3.64647 h 3.587022 v 1.56561 h -3.587022 v 3.64648 0.19817 q 0,0.47563 0.297267,0.83235 0.317085,0.3369 0.832348,0.3369 h 1.189068 2.140322 z"
             id="path4684" />
          <path
             d="m 113.45185,138.2674 v 1.40706 h -3.62666 q -0.57471,0 -0.99089,-0.19818 -0.41617,-0.21799 -0.69362,-0.53508 -0.27745,-0.3369 -0.41618,-0.73326 -0.13872,-0.39635 -0.13872,-0.77289 v -0.51526 -11.61324 h 1.6647 v 11.61324 0.19817 q 0,0.47563 0.29726,0.81253 0.31709,0.33691 0.83235,0.33691 h 1.18907 z"
             id="path4686" />
          <path
             d="m 122.78744,124.61758 -0.41609,5.60278 h -1.31603 l -0.41609,-5.60278 z"
             id="path4688" />
          <path
             d="m 128.0415,139.67446 v -14.36791 h 1.66469 v 14.36791 z"
             id="path4690" />
          <path
             d="m 142.027,139.67446 h -1.68451 v -11.61323 -0.218 q 0,-0.17836 -0.0595,-0.37654 -0.0594,-0.21799 -0.23781,-0.39635 -0.17836,-0.17836 -0.53508,-0.29727 -0.3369,-0.13872 -0.91162,-0.13872 -0.53508,0 -0.87198,0.13872 -0.31709,0.11891 -0.49545,0.31709 -0.17836,0.19817 -0.23781,0.41617 -0.0396,0.19818 -0.0396,0.37654 v 0.17836 11.61323 h -1.66469 v -11.61323 -0.51526 q 0,-0.218 0.0793,-0.61436 0.0793,-0.41617 0.41617,-0.81253 0.3369,-0.39635 1.01071,-0.6738 0.67381,-0.29727 1.86287,-0.29727 1.18907,0 1.86288,0.29727 0.6738,0.27745 1.0107,0.6738 0.33691,0.39636 0.41618,0.81253 0.0793,0.39636 0.0793,0.61436 v 0.23781 z"
             id="path4692" />
          <path
             d="m 149.27166,131.7077 h 3.64647 v 1.56561 h -3.64647 v 6.40115 h -1.6647 v -11.61323 -0.51526 q 0,-0.37654 0.13873,-0.7729 0.13872,-0.39635 0.41617,-0.71344 0.27745,-0.3369 0.69362,-0.53508 0.436,-0.218 0.99089,-0.218 h 3.94375 v 1.38725 h -2.17996 -1.20889 q -0.51526,0 -0.83234,0.35672 -0.29727,0.3369 -0.29727,0.83235 v 0.17836 z"
             id="path4694" />
          <path
             d="m 165.57925,137.21705 v 0.19818 q 0,0.23781 -0.0793,0.63417 -0.0793,0.39636 -0.41617,0.79271 -0.3369,0.39636 -1.01071,0.69362 -0.6738,0.27745 -1.86287,0.27745 -1.18907,0 -1.86287,-0.27745 -0.67381,-0.29726 -1.01071,-0.69362 -0.3369,-0.39635 -0.41618,-0.79271 -0.0793,-0.41617 -0.0793,-0.63417 v -0.49544 -8.87838 -0.51526 q 0,-0.218 0.0793,-0.61435 0.0793,-0.41618 0.41618,-0.81253 0.3369,-0.39636 1.01071,-0.67381 0.6738,-0.29727 1.86287,-0.29727 1.18907,0 1.86287,0.29727 0.67381,0.27745 1.01071,0.67381 0.3369,0.39635 0.41617,0.81253 0.0793,0.39635 0.0793,0.61435 v 0.19818 z m -1.68452,-0.29726 h 0.0198 v -8.87838 h -0.0198 v -0.218 q 0,-0.17836 -0.0594,-0.37653 -0.0594,-0.218 -0.23781,-0.39636 -0.17836,-0.17836 -0.53509,-0.29727 -0.3369,-0.13872 -0.91161,-0.13872 -0.53508,0 -0.87199,0.13872 -0.31708,0.11891 -0.49544,0.31709 -0.17836,0.19818 -0.23782,0.41617 -0.0396,0.19818 -0.0396,0.37654 v 0.17836 8.87838 0.17836 q 0,0.17836 0.0396,0.39635 0.0595,0.19818 0.23782,0.39636 0.17836,0.17836 0.49544,0.31708 0.33691,0.11891 0.87199,0.11891 0.57471,0 0.91161,-0.11891 0.35673,-0.13872 0.53509,-0.31708 0.17836,-0.17836 0.23781,-0.37654 0.0594,-0.218 0.0594,-0.37654 z"
             id="path4696" />
        </g>
        <g
           aria-label="2023"
           id="g45615"
           style="font-size:20.6655px;line-height:1.25;font-family:'Advanced Dot Digital-7';-inkscape-font-specification:'Advanced Dot Digital-7, Normal';text-align:center;letter-spacing:0.861068px;text-anchor:middle;fill:#fefaec;fill-opacity:1;stroke-width:0.43053"
           transform="translate(0,0.57443009)">
          <path
             d="m 86.262928,144.04308 h 1.033275 v 1.03328 h -1.033275 z m 12.399301,22.73206 h 1.033275 v 1.03327 h -1.033275 z m -2.06655,0 h 1.033275 v 1.03327 h -1.033275 z m -2.06655,0 h 1.033275 v 1.03327 h -1.033275 z m -2.06655,0 h 1.033275 v 1.03327 h -1.033275 z m -2.066551,0 h 1.033276 v 1.03327 h -1.033276 z m -2.06655,0 h 1.033275 v 1.03327 h -1.033275 z m -2.06655,0 h 1.033275 v 1.03327 h -1.033275 z m -2.06655,0 h 1.033275 v 1.03327 h -1.033275 z m 14.465851,-2.06655 h 1.033275 v 1.03327 h -1.033275 z m -2.06655,0 h 1.033275 v 1.03327 h -1.033275 z m -2.06655,0 h 1.033275 v 1.03327 h -1.033275 z m -2.06655,0 h 1.033275 v 1.03327 h -1.033275 z m -2.066551,0 h 1.033276 v 1.03327 h -1.033276 z m -2.06655,0 h 1.033275 v 1.03327 h -1.033275 z m -2.06655,0 h 1.033275 v 1.03327 h -1.033275 z m -2.06655,0 h 1.033275 v 1.03327 h -1.033275 z m 2.06655,-2.06655 h 1.033275 v 1.03327 h -1.033275 z m -2.06655,0 h 1.033275 v 1.03327 h -1.033275 z m 2.06655,-2.06655 h 1.033275 v 1.03327 h -1.033275 z m -2.06655,0 h 1.033275 v 1.03327 h -1.033275 z m 2.06655,-2.06655 h 1.033275 v 1.03327 h -1.033275 z m -2.06655,0 h 1.033275 v 1.03327 h -1.033275 z m 12.399301,-2.06655 h 1.033275 v 1.03327 h -1.033275 z m -2.06655,0 h 1.033275 v 1.03327 h -1.033275 z m -2.06655,0 h 1.033275 v 1.03327 h -1.033275 z m -2.066551,0 h 1.033276 v 1.03327 h -1.033276 z m -2.06655,0 h 1.033275 v 1.03327 h -1.033275 z m -2.06655,0 h 1.033275 v 1.03327 h -1.033275 z m -2.06655,0 h 1.033275 v 1.03327 h -1.033275 z m 14.465851,-2.06655 h 1.033275 v 1.03327 h -1.033275 z m -2.06655,0 h 1.033275 v 1.03327 h -1.033275 z m -2.06655,0 h 1.033275 v 1.03327 h -1.033275 z m -2.06655,0 h 1.033275 v 1.03327 h -1.033275 z m -2.066551,0 h 1.033276 v 1.03327 h -1.033276 z m -2.06655,0 h 1.033275 v 1.03327 h -1.033275 z m -2.06655,0 h 1.033275 v 1.03327 h -1.033275 z m 12.399301,-2.06655 h 1.033275 v 1.03327 h -1.033275 z m -2.06655,0 h 1.033275 v 1.03327 h -1.033275 z m 2.06655,-2.06655 h 1.033275 v 1.03327 h -1.033275 z m -2.06655,0 h 1.033275 v 1.03327 h -1.033275 z m 2.06655,-2.06655 h 1.033275 v 1.03327 h -1.033275 z m -2.06655,0 h 1.033275 v 1.03327 h -1.033275 z m -10.332751,0 h 1.033275 v 1.03327 h -1.033275 z m -2.06655,0 h 1.033275 v 1.03327 h -1.033275 z m 14.465851,-2.06656 h 1.033275 v 1.03328 h -1.033275 z m -2.06655,0 h 1.033275 v 1.03328 h -1.033275 z m -2.06655,0 h 1.033275 v 1.03328 h -1.033275 z m -2.06655,0 h 1.033275 v 1.03328 h -1.033275 z m -2.066551,0 h 1.033276 v 1.03328 h -1.033276 z m -2.06655,0 h 1.033275 v 1.03328 h -1.033275 z m -2.06655,0 h 1.033275 v 1.03328 h -1.033275 z m -2.06655,0 h 1.033275 v 1.03328 h -1.033275 z m 12.399301,-2.06655 h 1.033275 v 1.03328 h -1.033275 z m -2.06655,0 h 1.033275 v 1.03328 h -1.033275 z m -2.06655,0 h 1.033275 v 1.03328 h -1.033275 z m -2.066551,0 h 1.033276 v 1.03328 h -1.033276 z m -2.06655,0 h 1.033275 v 1.03328 h -1.033275 z"
             id="path45607"
             style="fill:#fefaec;fill-opacity:1" />
          <path
             d="m 105.73102,144.04308 h 1.03328 v 1.03328 h -1.03328 z m 10.33275,22.73206 h 1.03328 v 1.03327 h -1.03328 z m -2.06655,0 h 1.03328 v 1.03327 h -1.03328 z m -2.06655,0 h 1.03328 v 1.03327 h -1.03328 z m -2.06655,0 h 1.03328 v 1.03327 h -1.03328 z m -2.06655,0 h 1.03328 v 1.03327 h -1.03328 z m -2.06655,0 h 1.03328 v 1.03327 h -1.03328 z m 12.3993,-2.06655 h 1.03328 v 1.03327 h -1.03328 z m -2.06655,0 h 1.03328 v 1.03327 h -1.03328 z m -2.06655,0 h 1.03328 v 1.03327 h -1.03328 z m -2.06655,0 h 1.03328 v 1.03327 h -1.03328 z m -2.06655,0 h 1.03328 v 1.03327 h -1.03328 z m -2.06655,0 h 1.03328 v 1.03327 h -1.03328 z m -2.06655,0 h 1.03328 v 1.03327 h -1.03328 z m -2.06655,0 h 1.03328 v 1.03327 h -1.03328 z m 14.46585,-2.06655 h 1.03328 v 1.03327 h -1.03328 z m -2.06655,0 h 1.03328 v 1.03327 h -1.03328 z m -10.33275,0 h 1.03328 v 1.03327 h -1.03328 z m -2.06655,0 h 1.03328 v 1.03327 h -1.03328 z m 14.46585,-2.06655 h 1.03328 v 1.03327 h -1.03328 z m -2.06655,0 h 1.03328 v 1.03327 h -1.03328 z m -10.33275,0 h 1.03328 v 1.03327 h -1.03328 z m -2.06655,0 h 1.03328 v 1.03327 h -1.03328 z m 14.46585,-2.06655 h 1.03328 v 1.03327 h -1.03328 z m -2.06655,0 h 1.03328 v 1.03327 h -1.03328 z m -8.2662,0 h 1.03328 v 1.03327 h -1.03328 z m -2.06655,0 h 1.03328 v 1.03327 h -1.03328 z m -2.06655,0 h 1.03328 v 1.03327 h -1.03328 z m 14.46585,-2.06655 h 1.03328 v 1.03327 h -1.03328 z m -2.06655,0 h 1.03328 v 1.03327 h -1.03328 z m -6.19965,0 h 1.03328 v 1.03327 h -1.03328 z m -2.06655,0 h 1.03328 v 1.03327 h -1.03328 z m -2.06655,0 h 1.03328 v 1.03327 h -1.03328 z m -2.06655,0 h 1.03328 v 1.03327 h -1.03328 z m 14.46585,-2.06655 h 1.03328 v 1.03327 h -1.03328 z m -2.06655,0 h 1.03328 v 1.03327 h -1.03328 z m -4.1331,0 h 1.03328 v 1.03327 h -1.03328 z m -2.06655,0 h 1.03328 v 1.03327 h -1.03328 z m -4.1331,0 h 1.03328 v 1.03327 h -1.03328 z m -2.06655,0 h 1.03328 v 1.03327 h -1.03328 z m 14.46585,-2.06655 h 1.03328 v 1.03327 h -1.03328 z m -2.06655,0 h 1.03328 v 1.03327 h -1.03328 z m -2.06655,0 h 1.03328 v 1.03327 h -1.03328 z m -2.06655,0 h 1.03328 v 1.03327 h -1.03328 z m -6.19965,0 h 1.03328 v 1.03327 h -1.03328 z m -2.06655,0 h 1.03328 v 1.03327 h -1.03328 z m 14.46585,-2.06655 h 1.03328 v 1.03327 h -1.03328 z m -2.06655,0 h 1.03328 v 1.03327 h -1.03328 z m -2.06655,0 h 1.03328 v 1.03327 h -1.03328 z m -8.2662,0 h 1.03328 v 1.03327 h -1.03328 z m -2.06655,0 h 1.03328 v 1.03327 h -1.03328 z m 14.46585,-2.06655 h 1.03328 v 1.03327 h -1.03328 z m -2.06655,0 h 1.03328 v 1.03327 h -1.03328 z m -10.33275,0 h 1.03328 v 1.03327 h -1.03328 z m -2.06655,0 h 1.03328 v 1.03327 h -1.03328 z m 14.46585,-2.06656 h 1.03328 v 1.03328 h -1.03328 z m -2.06655,0 h 1.03328 v 1.03328 h -1.03328 z m -2.06655,0 h 1.03328 v 1.03328 h -1.03328 z m -2.06655,0 h 1.03328 v 1.03328 h -1.03328 z m -2.06655,0 h 1.03328 v 1.03328 h -1.03328 z m -2.06655,0 h 1.03328 v 1.03328 h -1.03328 z m -2.06655,0 h 1.03328 v 1.03328 h -1.03328 z m -2.06655,0 h 1.03328 v 1.03328 h -1.03328 z m 12.3993,-2.06655 h 1.03328 v 1.03328 h -1.03328 z m -2.06655,0 h 1.03328 v 1.03328 h -1.03328 z m -2.06655,0 h 1.03328 v 1.03328 h -1.03328 z m -2.06655,0 h 1.03328 v 1.03328 h -1.03328 z m -2.06655,0 h 1.03328 v 1.03328 h -1.03328 z"
             id="path45609"
             style="fill:#fefaec;fill-opacity:1" />
          <path
             d="m 125.19911,144.04308 h 1.03328 v 1.03328 h -1.03328 z m 12.3993,22.73206 h 1.03328 v 1.03327 h -1.03328 z m -2.06655,0 h 1.03328 v 1.03327 h -1.03328 z m -2.06655,0 h 1.03328 v 1.03327 h -1.03328 z m -2.06655,0 h 1.03328 v 1.03327 h -1.03328 z m -2.06655,0 h 1.03328 v 1.03327 h -1.03328 z m -2.06655,0 h 1.03328 v 1.03327 h -1.03328 z m -2.06655,0 h 1.03328 v 1.03327 h -1.03328 z m -2.06655,0 h 1.03328 v 1.03327 h -1.03328 z m 14.46585,-2.06655 h 1.03328 v 1.03327 h -1.03328 z m -2.06655,0 h 1.03328 v 1.03327 h -1.03328 z m -2.06655,0 h 1.03328 v 1.03327 h -1.03328 z m -2.06655,0 h 1.03328 v 1.03327 h -1.03328 z m -2.06655,0 h 1.03328 v 1.03327 h -1.03328 z m -2.06655,0 h 1.03328 v 1.03327 h -1.03328 z m -2.06655,0 h 1.03328 v 1.03327 h -1.03328 z m -2.06655,0 h 1.03328 v 1.03327 h -1.03328 z m 2.06655,-2.06655 h 1.03328 v 1.03327 h -1.03328 z m -2.06655,0 h 1.03328 v 1.03327 h -1.03328 z m 2.06655,-2.06655 h 1.03328 v 1.03327 h -1.03328 z m -2.06655,0 h 1.03328 v 1.03327 h -1.03328 z m 2.06655,-2.06655 h 1.03328 v 1.03327 h -1.03328 z m -2.06655,0 h 1.03328 v 1.03327 h -1.03328 z m 12.3993,-2.06655 h 1.03328 v 1.03327 h -1.03328 z m -2.06655,0 h 1.03328 v 1.03327 h -1.03328 z m -2.06655,0 h 1.03328 v 1.03327 h -1.03328 z m -2.06655,0 h 1.03328 v 1.03327 h -1.03328 z m -2.06655,0 h 1.03328 v 1.03327 h -1.03328 z m -2.06655,0 h 1.03328 v 1.03327 h -1.03328 z m -2.06655,0 h 1.03328 v 1.03327 h -1.03328 z m 14.46585,-2.06655 h 1.03328 v 1.03327 h -1.03328 z m -2.06655,0 h 1.03328 v 1.03327 h -1.03328 z m -2.06655,0 h 1.03328 v 1.03327 h -1.03328 z m -2.06655,0 h 1.03328 v 1.03327 h -1.03328 z m -2.06655,0 h 1.03328 v 1.03327 h -1.03328 z m -2.06655,0 h 1.03328 v 1.03327 h -1.03328 z m -2.06655,0 h 1.03328 v 1.03327 h -1.03328 z m 12.3993,-2.06655 h 1.03328 v 1.03327 h -1.03328 z m -2.06655,0 h 1.03328 v 1.03327 h -1.03328 z m 2.06655,-2.06655 h 1.03328 v 1.03327 h -1.03328 z m -2.06655,0 h 1.03328 v 1.03327 h -1.03328 z m 2.06655,-2.06655 h 1.03328 v 1.03327 h -1.03328 z m -2.06655,0 h 1.03328 v 1.03327 h -1.03328 z m -10.33275,0 h 1.03328 v 1.03327 h -1.03328 z m -2.06655,0 h 1.03328 v 1.03327 h -1.03328 z m 14.46585,-2.06656 h 1.03328 v 1.03328 h -1.03328 z m -2.06655,0 h 1.03328 v 1.03328 h -1.03328 z m -2.06655,0 h 1.03328 v 1.03328 h -1.03328 z m -2.06655,0 h 1.03328 v 1.03328 h -1.03328 z m -2.06655,0 h 1.03328 v 1.03328 h -1.03328 z m -2.06655,0 h 1.03328 v 1.03328 h -1.03328 z m -2.06655,0 h 1.03328 v 1.03328 h -1.03328 z m -2.06655,0 h 1.03328 v 1.03328 h -1.03328 z m 12.3993,-2.06655 h 1.03328 v 1.03328 h -1.03328 z m -2.06655,0 h 1.03328 v 1.03328 h -1.03328 z m -2.06655,0 h 1.03328 v 1.03328 h -1.03328 z m -2.06655,0 h 1.03328 v 1.03328 h -1.03328 z m -2.06655,0 h 1.03328 v 1.03328 h -1.03328 z"
             id="path45611"
             style="fill:#fefaec;fill-opacity:1" />
          <path
             d="m 144.6672,144.04308 h 1.03328 v 1.03328 h -1.03328 z m 10.33275,22.73206 h 1.03328 v 1.03327 h -1.03328 z m -2.06655,0 h 1.03328 v 1.03327 h -1.03328 z m -2.06655,0 h 1.03328 v 1.03327 h -1.03328 z m -2.06655,0 h 1.03328 v 1.03327 h -1.03328 z m -2.06655,0 h 1.03328 v 1.03327 h -1.03328 z m -2.06655,0 h 1.03328 v 1.03327 h -1.03328 z m 12.3993,-2.06655 h 1.03328 v 1.03327 h -1.03328 z m -2.06655,0 h 1.03328 v 1.03327 h -1.03328 z m -2.06655,0 h 1.03328 v 1.03327 h -1.03328 z m -2.06655,0 h 1.03328 v 1.03327 h -1.03328 z m -2.06655,0 h 1.03328 v 1.03327 h -1.03328 z m -2.06655,0 h 1.03328 v 1.03327 h -1.03328 z m -2.06655,0 h 1.03328 v 1.03327 h -1.03328 z m -2.06655,0 h 1.03328 v 1.03327 h -1.03328 z m 14.46585,-2.06655 h 1.03328 v 1.03327 h -1.03328 z m -2.06655,0 h 1.03328 v 1.03327 h -1.03328 z m -10.33275,0 h 1.03328 v 1.03327 h -1.03328 z m -2.06655,0 h 1.03328 v 1.03327 h -1.03328 z m 14.46585,-2.06655 h 1.03328 v 1.03327 h -1.03328 z m -2.06655,0 h 1.03328 v 1.03327 h -1.03328 z m 2.06655,-2.06655 h 1.03328 v 1.03327 h -1.03328 z m -2.06655,0 h 1.03328 v 1.03327 h -1.03328 z m 0,-2.06655 h 1.03328 v 1.03327 h -1.03328 z m -2.06655,0 h 1.03328 v 1.03327 h -1.03328 z m -2.06655,0 h 1.03328 v 1.03327 h -1.03328 z m -2.06655,0 h 1.03328 v 1.03327 h -1.03328 z m -2.06655,0 h 1.03328 v 1.03327 h -1.03328 z m 8.2662,-2.06655 h 1.03328 v 1.03327 h -1.03328 z m -2.06655,0 h 1.03328 v 1.03327 h -1.03328 z m -2.06655,0 h 1.03328 v 1.03327 h -1.03328 z m -2.06655,0 h 1.03328 v 1.03327 h -1.03328 z m -2.06655,0 h 1.03328 v 1.03327 h -1.03328 z m 10.33275,-2.06655 h 1.03328 v 1.03327 h -1.03328 z m -2.06655,0 h 1.03328 v 1.03327 h -1.03328 z m 2.06655,-2.06655 h 1.03328 v 1.03327 h -1.03328 z m -2.06655,0 h 1.03328 v 1.03327 h -1.03328 z m 2.06655,-2.06655 h 1.03328 v 1.03327 h -1.03328 z m -2.06655,0 h 1.03328 v 1.03327 h -1.03328 z m -10.33275,0 h 1.03328 v 1.03327 h -1.03328 z m -2.06655,0 h 1.03328 v 1.03327 h -1.03328 z m 14.46585,-2.06656 h 1.03328 v 1.03328 h -1.03328 z m -2.06655,0 h 1.03328 v 1.03328 h -1.03328 z m -2.06655,0 h 1.03328 v 1.03328 h -1.03328 z m -2.06655,0 h 1.03328 v 1.03328 h -1.03328 z m -2.06655,0 h 1.03328 v 1.03328 h -1.03328 z m -2.06655,0 h 1.03328 v 1.03328 h -1.03328 z m -2.06655,0 h 1.03328 v 1.03328 h -1.03328 z m -2.06655,0 h 1.03328 v 1.03328 h -1.03328 z m 12.3993,-2.06655 h 1.03328 v 1.03328 h -1.03328 z m -2.06655,0 h 1.03328 v 1.03328 h -1.03328 z m -2.06655,0 h 1.03328 v 1.03328 h -1.03328 z m -2.06655,0 h 1.03328 v 1.03328 h -1.03328 z m -2.06655,0 h 1.03328 v 1.03328 h -1.03328 z"
             id="path45613"
             style="fill:#fefaec;fill-opacity:1" />
        </g>
      </g>
    </g>
  </g>
  <style
     type="text/css"
     id="style203371">
	.st0{fill:#17182D;}
	.st1{fill:#23253A;}
	.st2{fill:#2C2E42;}
	.st3{fill:#D0110E;}
	.st4{fill:#FEDC25;}
	.st5{fill:#FDBC1D;}
	.st6{fill:#F9DE6B;}
	.st7{fill:#F9E491;}
	.st8{fill:#212333;}
	.st9{fill:#EA365D;}
	.st10{fill:#FF4061;}
	.st11{fill:#F3AA65;}
	.st12{fill:#C17842;}
	.st13{fill:#FABD86;}
	.st14{fill:#935C3E;}
	.st15{fill:#444444;}
	.st16{fill:#333333;}
	.st17{fill:#4D4D4D;}
	.st18{fill:#FFFFFF;}
	.st19{fill:#EFDDDB;}
	.st20{fill:#F9F8F7;}
</style>
</svg>
